<svg xmlns="http://www.w3.org/2000/svg" viewBox="0 0 428.27 432.07"><defs><style>.cls-1{fill:#fcfcfc;}</style></defs><g id="all"><path class="cls-1" d="M142.61,149.79q-1.16,1.56-2.34,3.12l3.91-2.34C143.29,149.68,144.17,150.25,142.61,149.79Z"/><path class="cls-1" d="M141.84,186.46V188c-2.88.3-3.38,1.34-5.47,2.34v1.56h.78c1.4-1.53,1.52-.66,3.12-1.56v-.78h1.57l.77-1.56,3.13-.78.78-1.56h1.56l1.56-2.34,3.12-.78.78-1.56,2.34-.78v-.78l3.12-.78.78-1.56,3.12-.78v-.78l2.34-.78.78-1.57h1.57c.25-.51.52-1,.77-1.56h1.57l1.56-1.56h1.56l.78-1.56,3.12-.78.78-1.56,3.12-.78.78-1.56H184l.78-1.56,7.8-3.9v-.78H191c-1.68,2.36-1,.35-3.12,1.56l-.78,1.56-3.9.78-.78,1.56-4.68,1.56-.78,1.56h-1.56V167h-1.56l-1.56,1.56h-1.56c-.27.52-.52,1-.78,1.56l-3.12.78c-.27.52-.53,1-.79,1.56h-1.56c-.25.52-.52,1.05-.78,1.56l-2.34.79v.78l-4.68,1.56-.78,1.56h-1.56L152.76,181h-2.34l-1.56,2.34H147.3C145.35,184.48,144.58,185.82,141.84,186.46Z"/><path class="cls-1" d="M138.71,163.83c.27-.78.52-1.56.79-2.34h-2.35a8.34,8.34,0,0,0-.78,3.12h.78C138,163.72,137.16,164.3,138.71,163.83Z"/><path class="cls-1" d="M103.6,163.05c.89.89,0,.31,1.56.78C104.27,162.94,105.16,163.52,103.6,163.05Z"/><path class="cls-1" d="M193.34,165.39c-.26.78-.52,1.56-.79,2.34h.79V167c.32-.45,1.27-.11.78-1.56Z"/><path class="cls-1" d="M113.75,169.29v1.56l2.33.78c-.25-.78-.52-1.56-.78-2.34Z"/><path class="cls-1" d="M184,182.56l-.78,2.34H184v-.78c.33-.45,1.28-.12.78-1.56Z"/><path class="cls-1" d="M180.07,191.92c.89.89,0,.31,1.56.78C180.74,191.81,181.63,192.39,180.07,191.92Z"/><path class="cls-1" d="M287,194.26l2.34.78v.78C287.45,195.35,287.86,195.58,287,194.26Z"/><path class="cls-1" d="M289.31,195.82l2.35.78v.78C289.79,196.91,290.2,197.14,289.31,195.82Z"/><path class="cls-1" d="M291.66,197.38h1.56v.78C291.65,197.72,292.54,198.26,291.66,197.38Z"/><path class="cls-1" d="M293.22,198.16h1.56V199C293.21,198.5,294.1,199,293.22,198.16Z"/><path class="cls-1" d="M297.12,200.51h1.56v.78C297.11,200.84,298,201.38,297.12,200.51Z"/><path class="cls-1" d="M301.8,202.85l8.58,3.12v.78H308C306.18,204.74,303.43,205.32,301.8,202.85Z"/><path class="cls-1" d="M325.21,202.85v1.56h-.78v-.78h-.78v-.78Z"/><path class="cls-1" d="M300.24,206.75h1.56v.78C300.23,207.08,301.13,207.62,300.24,206.75Z"/><path class="cls-1" d="M317.4,207.53H319v.78C317.4,207.86,318.29,208.4,317.4,207.53Z"/><path class="cls-1" d="M306.48,209.87H308v.78C306.47,210.2,307.37,210.74,306.48,209.87Z"/><path class="cls-1" d="M309.6,210.65v1.56h-.78v-.78H308v-.78Z"/><path class="cls-1" d="M311.16,212.21h1.56V213C311.16,212.54,312.05,213.08,311.16,212.21Z"/><path class="cls-1" d="M313.5,213h1.57v.78C313.49,213.32,314.39,213.87,313.5,213Z"/><path class="cls-1" d="M332.23,213h1.56v.78C332.22,213.32,333.12,213.87,332.23,213Z"/><path class="cls-1" d="M337.7,214.55h1.56v.78C337.69,214.88,338.58,215.42,337.7,214.55Z"/><path class="cls-1" d="M306.48,216.11H308v.78C306.47,216.44,307.37,217,306.48,216.11Z"/><path class="cls-1" d="M308,216.89h1.56v.78C308,217.22,308.93,217.77,308,216.89Z"/><path class="cls-1" d="M309.6,217.67h1.56v.78C309.59,218,310.49,218.55,309.6,217.67Z"/><path class="cls-1" d="M322.09,219.23a7.76,7.76,0,0,1,3.12.78v.78h-1.56C323.05,220,322.69,220,322.09,219.23Z"/><path class="cls-1" d="M331.45,220H333v.78C331.44,220.35,332.34,220.89,331.45,220Z"/><path class="cls-1" d="M317.4,220.79H319v.79C317.4,221.13,318.29,221.67,317.4,220.79Z"/><path class="cls-1" d="M325.21,220.79h2.34v.79h-2.34Z"/><path class="cls-1" d="M329.11,223.13q.39-1.15.78-2.34c.89.89.31,0,.78,1.56h.78v.78Z"/><path class="cls-1" d="M333,220.79h1.56v.79h-.78v.77C332.91,221.47,333.48,222.35,333,220.79Z"/><path class="cls-1" d="M170.71,221.58v1.55h.78v-1.55Z"/><path class="cls-1" d="M336.91,221.58c.89.88.31,0,.79,1.55h-.79Z"/><path class="cls-1" d="M331.45,223.13h2.34v.79h-2.34Z"/><path class="cls-1" d="M326,223.92l3.9.78v.78h-2.34C327,224.68,326.59,224.71,326,223.92Z"/><path class="cls-1" d="M334.57,223.92h1.56v.78C334.57,224.25,335.46,224.79,334.57,223.92Z"/><path class="cls-1" d="M169.93,224.7c-.27.78-.52,1.56-.78,2.34h.78v-.78c.32-.46,1.27-.12.78-1.56Z"/><path class="cls-1" d="M322.09,227h1.56v.78C322.08,227.37,323,227.91,322.09,227Z"/><path class="cls-1" d="M333.79,227h2.34v.78h-2.34Z"/><path class="cls-1" d="M328.33,229.38c.89.89.31,0,.78,1.56h-.78Z"/><path class="cls-1" d="M308.82,262.15v-2.34H308a3.08,3.08,0,0,1-1.56,1.56v.78H308v.78h5.46v-.78h.79v-.78h-3.91C309.49,262.26,310.38,261.68,308.82,262.15Z"/><path class="cls-1" d="M357.2,266.05h1.56v.78C357.19,266.39,358.09,266.92,357.2,266.05Z"/><path class="cls-1" d="M286.19,270h1.56v.78C286.18,270.29,287.08,270.83,286.19,270Z"/><path class="cls-1" d="M182.41,271.52v1.55h.78v-1.55Z"/><path class="cls-1" d="M174.61,287.12v-1.56h.78v.78h2.34v.78Z"/><path class="cls-1" d="M204.26,303.51h1.56c-.66.88.1.11-.78.78v.78C204.15,304.18,204.73,305.07,204.26,303.51Z"/><path class="cls-1" d="M212.85,304.29h1.55v.78C212.84,304.62,213.73,305.16,212.85,304.29Z"/><path class="cls-1" d="M197.24,305.07c1.46,1-.43.63.78,1.56l2.34-.78v.78h-.78v.78a9.88,9.88,0,0,1-3.9.78v-.78A6,6,0,0,0,197.24,305.07Z"/><path class="cls-1" d="M195.68,307.41h-1.56c.65-.89-.1-.12.78-.78v-.78C195.79,306.74,195.21,305.85,195.68,307.41Z"/><path class="cls-1" d="M177.73,312.09h1.56v.78C177.72,312.42,178.62,313,177.73,312.09Z"/><path class="cls-1" d="M177,313.65h.78V316H177Z"/><path class="cls-1" d="M173.83,315.21h.78v2.34l-.78-.77-2.34.77v-.77h.78C172.87,316,173.23,316,173.83,315.21Z"/><path class="cls-1" d="M176.17,317.55h1.56c-.66.89.1.12-.78.78v.78C176.06,318.22,176.64,319.11,176.17,317.55Z"/><path class="cls-1" d="M244.06,329.26h1.56v-.78h-.78v-.78h-.78Z"/><path class="cls-1" d="M174.61,343.3v-1.56L177,341V339.4h-.78c-1.38,1.55-1.67.65-3.12,1.56l-.78,1.56c-2.11,1.21-1.48-.85-3.12,1.56h-.79v.79h.79c.45.32.11,1.27,1.56.78v-.78C172.84,344.36,172.48,343.84,174.61,343.3Z"/><path class="cls-1" d="M176.17,342.52l-1.56,2.35h1.56v-.79c.32-.45,1.27-.11.78-1.56Z"/><path class="cls-1" d="M331.45,351.11v1.56l1.56.78v3.12h-.78v.78l-4.68.78c-.25,1.61-1.51,3.19-.78,5.46h.78v1.56h.78v3.12h.78l-.78,8.59-1.56.78v1.56l-1.56.78c-1.45,2,.84,1.43-2.34,2.34v1.56c-2.05.56-2.5,1.24-3.9,2.34V387l-3.9.78c-.25.13-1.47,2.76-2.35,2.34v-.78a9.56,9.56,0,0,1-3.12-4.68c-2.65-.07-4.5-.42-6.24-1.56l-1.56-2.34-3.9-.78v-.78l-1.56-.78v-1.56l-3.12-2.34V373h-1.56c-.58-2.44-1.78-3.53-2.35-6.25l-2.34-.77c-1-3.05-.14-1-2.34-2.35v-.78h-1.56V362h-1.56l-.78-1.56-2.34-.78v-7c1.74-1.06,2.41-2.63,3.9-3.9V348h1.56v-.78l3.9-.79.79-1.55h7c2.47,3.39,9.43,1,14,2.34V348c2.09.25,4.17.52,6.25.78v.78h1.55v.78h3.13v.78Z"/><path class="cls-1" d="M179.89,269.65h.47v.23C179.88,269.75,180.15,269.91,179.89,269.65Z"/><path class="cls-1" d="M179.65,270.59c.59.34.68.49.71,1.42h-.24v-.24h-.23Z"/><path class="cls-1" d="M228.31,271.06c.27.27.09,0,.24.48h-.24Z"/><path class="cls-1" d="M219.33,272.25h-.7c-.23.42-.33.37-.48.94h.24V273h.71v-.23C219.37,272.45,219.19,272.72,219.33,272.25Z"/><path class="cls-1" d="M221,272.48c-.25.31-.48.35-.71.71-.27.2,0,0-.24.24h.48c.53-.88.56-.42,1.41-.71v-.24Z"/><path class="cls-1" d="M220,274.37h.48v.24C220,274.47,220.31,274.63,220,274.37Z"/><path class="cls-1" d="M207.76,274.84v.48c.27-.2,0,0,.24-.24h.23C208,274.81,208.23,275,207.76,274.84Z"/><path class="cls-1" d="M201.15,275.79v.47h.94V276c.4-.07.41.23.47.24l1.66-.24v-.23c.26-.2,0,0,.23-.24a3.72,3.72,0,0,0-1.41-.23A2.53,2.53,0,0,1,201.15,275.79Z"/><path class="cls-1" d="M205.4,276.26l.23-.71h.24v.24c.2.44.24-.47.24-.47h-1c-.33,0,.1.24-.23.23l-.24-.23v.23h.24v.24l-.24.47Z"/><path class="cls-1" d="M215.08,276.73l.47.24v.24h-.94V277C215.08,276.83,214.81,277,215.08,276.73Z"/><path class="cls-1" d="M207.29,277h.47v.24C207.28,277.07,207.56,277.23,207.29,277Z"/><path class="cls-1" d="M204.69,277.44c.27.27.09,0,.24.47h-.24Z"/><path class="cls-1" d="M207.05,277.68H208v.23h-.95Z"/><path class="cls-1" d="M210.36,277.68h.47v.23C210.35,277.78,210.63,277.94,210.36,277.68Z"/><path class="cls-1" d="M211.54,277.91c.27.27.09,0,.23.48h-.23Z"/><path class="cls-1" d="M196.89,278.15c.27.27,0,.1.48.24C197.1,278.12,197.37,278.29,196.89,278.15Z"/><path class="cls-1" d="M196.66,280h.47v.24C196.65,280.14,196.93,280.3,196.66,280Z"/><path class="cls-1" d="M197.37,280h.47v.24C197.36,280.14,197.63,280.3,197.37,280Z"/></g><g id="圖層_28" data-name="圖層 28"><path class="cls-1" d="M331.45,351.11v1.56l1.56.78v3.12h-.78v.78l-4.68.78c-.25,1.61-1.51,3.19-.78,5.46h.78v1.56h.78v3.12h.78l-.78,8.59-1.56.78v1.56l-1.56.78c-1.45,2,.84,1.43-2.34,2.34v1.56c-2.05.56-2.5,1.24-3.9,2.34V387l-3.9.78c-.25.13-1.47,2.76-2.35,2.34v-.78a9.56,9.56,0,0,1-3.12-4.68c-2.65-.07-4.5-.42-6.24-1.56l-1.56-2.34-3.9-.78v-.78l-1.56-.78v-1.56l-3.12-2.34V373h-1.56c-.58-2.44-1.78-3.53-2.35-6.25l-2.34-.77c-1-3.05-.14-1-2.34-2.35v-.78h-1.56V362h-1.56l-.78-1.56-2.34-.78v-7c1.74-1.06,2.41-2.63,3.9-3.9V348h1.56v-.78l3.9-.79.79-1.55h7c2.47,3.39,9.43,1,14,2.34V348c2.09.25,4.17.52,6.25.78v.78h1.55v.78h3.13v.78Z"/></g><g id="圖層_3" data-name="圖層 3"><path class="cls-1" d="M265.12,310.53l2.34-.78v-1.57c-1.55-.46-.67.11-1.56-.77h-.78l.78-3.91-2.34-.78-.78-1.56h-1.56l-1.56-2.34-5.46-1.56-.78-1.56h-4.68l-3.12-3.9-2.35.78c-.25-.06-.2-1.05-1.56-.78v.78h-.77v-.78h-4.69v.78a34,34,0,0,1-6.24,2.34c-.86,3.12-3.2,3.06-4.68,5.46h-1.56v-1.56H223l-.78,2.34c-2.52,1.38-3-1-3.91,3.12-.77.27-1.56.53-2.34.78v.79H214.4v.78l-8.58,1.55v1.57a9.88,9.88,0,0,0-3.9.78V309l-3.12.78v.78c-.78-.27-1.56-.52-2.35-.78v.78c-2.1.63-5.48.63-6.24,0h-3.12l.78-1.56-3.12.78v1.56c-.44.83-2.73.85-2.34,3.12l.78.78a7.6,7.6,0,0,1-3.12.78v.78h3.12v.78a8.2,8.2,0,0,0-1.56,1.56l-2.34-.78L177,321.45l-5.46.78v-1.56h1.56v-.78c-3.07.32-3.43,1.16-3.9,3.9-2.13-.59-1.78-.18-2.35-2.34-3.55-.11-3.72-.94-6.24-1.56l-.78,2.34-6.24.78v.78c-1.19.14-4.59-1.48-7-.78a35.92,35.92,0,0,1-9.37,1.56,12.54,12.54,0,0,0-4.68-3.12l-.78-3.12-4.68-.78a17.17,17.17,0,0,1-4.68,3.12c-.26,3.64-.52,7.29-.79,10.92h.79q.38,3.53.78,7h1.56c.2,2.28.88,4.54,2.34,5.46h2.34v.78l2.34,1.56V348l2.34.78a15.55,15.55,0,0,1,.78,6.25c.78.26,1.56.51,2.34.78v1.56l2.34.78c.39-.1,0-1.88,2.35-1.56v.78a29.93,29.93,0,0,0,10.25.23c3.25-1.7,6.36-3.73,9.54-5.74a116.88,116.88,0,0,1,13.19-7.3h0l1.34-2H177c.2.58.16.87,0,1.05a73.31,73.31,0,0,1,15.62-4.94c10.47-2,21.15-1.3,31.76.18l1-1h1.56v-.78h1.56v-.78H230l.78-1.56,3.12-.78.78-1.56h1.56v-.79h2.34l.78-1.55c1,.09,2,1.35,3.9.77V330c1.57-.26,3.12-.53,4.69-.78.47-1.56-.11-.68.78-1.57s.14-.62,1.56,0v.78h2.34v-1.56h1.56v.78H255v-.78h6.24v-.78h3.9c-.29-.85-1.43-2.18-.78-3.9l1.56-.78v-3.12l1.56-.78C268.07,315.81,265.12,310.54,265.12,310.53ZM177,341l-2.34.78v1.56c-2.13.54-1.77,1.06-3.9,1.56v.78c-1.45.49-1.11-.45-1.56-.78h-.79v-.78h.79c1.63-2.41,1-.36,3.12-1.56.26-.52.51-1,.78-1.56,1.44-.92,1.74,0,3.12-1.56H177Zm68.67-11.7h-1.56v-1.57h.78v.78h.78Z"/><path class="cls-1" d="M169.15,344.86h-.79v-.78h.79c1.63-2.41,1-.36,3.12-1.56.26-.52.51-1,.78-1.56,1.44-.92,1.74,0,3.12-1.56H177V341l-2.34.78v1.56c-2.13.54-1.77,1.06-3.9,1.56v.78C169.26,346.13,169.6,345.19,169.15,344.86Z"/><polygon class="cls-1" points="245.62 329.26 244.06 329.26 244.06 327.69 244.84 327.69 244.84 328.47 245.62 328.47 245.62 329.26"/><path class="cls-1" d="M205.82,303.5c-.66.89.1.12-.78.78v.78c-.89-.88-.31,0-.78-1.56Z"/><path class="cls-1" d="M214.4,304.28v.78c-1.57-.44-.67.1-1.56-.78Z"/><path class="cls-1" d="M200.36,305.85v.78h-.78v.78a10,10,0,0,1-3.9.77v-.77a6.17,6.17,0,0,0,1.56-2.35c1.46,1-.43.63.78,1.57Z"/><path class="cls-1" d="M195.68,307.41h-1.57c.66-.89-.1-.12.79-.78v-.78C195.79,306.74,195.21,305.85,195.68,307.41Z"/><path class="cls-1" d="M179.29,312.09v.78c-1.57-.45-.68.09-1.56-.78Z"/><rect class="cls-1" x="176.95" y="313.65" width="0.78" height="2.34"/><path class="cls-1" d="M174.61,315.21v2.34l-.78-.78-2.34.78v-.78h.78c.6-.8.95-.77,1.56-1.56Z"/><path class="cls-1" d="M177.73,317.55c-.66.89.1.12-.78.78v.78c-.89-.89-.31,0-.78-1.56Z"/><polygon class="cls-1" points="245.62 328.47 245.62 329.26 244.06 329.26 244.06 327.69 244.84 327.69 244.84 328.47 245.62 328.47"/><path class="cls-1" d="M177,339.4V341l-2.34.78v1.56c-2.13.54-1.77,1.06-3.9,1.56v.78c-1.45.49-1.11-.45-1.56-.78h-.79v-.78h.79c1.63-2.41,1-.36,3.12-1.56.26-.52.51-1,.78-1.56,1.44-.92,1.74,0,3.12-1.56Z"/><path class="cls-1" d="M177,343.57c-.19.26-.61.24-.81.51v.78h-1.56l.21-.32h0l1.34-2H177C177.15,343.1,177.11,343.39,177,343.57Z"/><path class="cls-1" d="M16.19,274.63c-.52,2.37-1.25,1.75-1.55,2.34v-2.34Z"/><path class="cls-1" d="M23.12,210.78l-.46.9C22.46,211.26,22.66,210.58,23.12,210.78Z"/><path class="cls-1" d="M109.05,213c-.49,3.14-1,6.25-1.55,9.39h-.79v3.89H106v3.11h-.8v4.69h-.79v12.49h-.76v1.55c-1.19,2.31-2.81,3.53-3.14,7-4.92,2.31-9.87,4.65-14.8,7H81v.79H78.63v.79H76.28v.76H73.94c-.76,1.06-1.56,2.08-2.35,3.14-1.25.46-1.42-.76-1.55-.79-2.91-.56-5.05.3-6.24,1.55H63v2.35c-3.57.16-4.13,1-5.49-.8h-.76v2.35H54.45v-1.55c-3,.36-3.24,1.29-6.25,1.55-.26.79-.52,1.59-.79,2.35l-6.24.79a15.76,15.76,0,0,1,2.34-5.49c.53-.23,1.06-.49,1.56-.76v-1.55c1-.79,2.08-1.58,3.13-2.34v-1.56c1.29-1.05,2.58-2.08,3.9-3.13v-.8h1.55c.27-.76.53-1.55.8-2.31,2.57-2.34,5.18-4.69,7.79-7l3.9-4.69h1.55c1.82-2.08,3.64-4.16,5.49-6.24h1.55l3.1-3.9h1.59l2.31-3.1c.8-.27,1.59-.53,2.35-.8v-.79h1.58v-1.55c.76-.26,1.56-.53,2.32-.76.79-1.06,1.58-2.11,2.34-3.14h1.59l2.31-3.1c.79-.27,1.59-.53,2.35-.8.26-.53.52-1,.79-1.55l3.1-.79c.53-.79,1.06-1.55,1.59-2.35,2-1.38,4.66-2.14,6.24-3.9Z"/></g><g id="圖層_25" data-name="圖層 25"><path class="cls-1" d="M364.28,258.91q-1.26,1.8-2.67,3.48a10.2,10.2,0,0,0-1.27-.25c-1.42,2.41-4,3.24-5.49,5.48h-.76c-.16-.13.43-2.67-.79-1.58v.79a31.91,31.91,0,0,0-3.14,3.1c-1-.23-2.08-.49-3.1-.76v.76h-2.35v.8l-2.34.79v-.79c-.76-.27-1.56-.53-2.35-.8v1.59c-.89-.3-1.49-1.35-3.1-.79-.27.53-.53,1-.8,1.55h-5.45v.79c-.53-.26-1.05-.53-1.55-.79v.79l-7,1.56c-.26-.53-.52-1-.79-1.56H319v-.79a12.3,12.3,0,0,0-6.24,0c-.73-.5-1.46-2.38-2.35-3.11a7.53,7.53,0,0,1-.79,3.11h-.76c.23-.76.49-1.55.76-2.35h-.76v-.76c2.28-.89-1.39-.72-2.35-.79v.79h.76v2.35c-4.42-.5-4.29-1.06-7.79.76.26-.76.52-1.55.79-2.35h-4.69v1.59c-1.59-.46-.7.17-1.55-.79h.76v-.8h-2.35v-.76h-.76c-1,.7.86,1-.79,1.56v-1.56c-.8-.56-.66,1.59-2.35,0v-1.55h-.76v.76h-3.14v.79c-1.28.27-1.42-.76-1.55-.79l-3.14.79c-.23-.52-.49-1.05-.76-1.55a1.12,1.12,0,0,0-1.55.76h-.79v-.76h-2.35v-.79h-2.34c-.27-.53-.5-1-.76-1.55l-3.93-.8v-.76h-1.56v-.79h-3.1v-.79h-1.55v-.76h-2.35v-.79h-3.14v-.8H254.2c-.53-.76-1.06-1.55-1.55-2.31l-5.49-1.58c-.26-.53-.49-1-.76-1.56h-1.55c-.26-.53-.53-1-.79-1.55h-1.55c-.27-.53-.53-1.06-.8-1.55l-2.34-.8v-.79a6.43,6.43,0,0,0-3.11-1.55c-.26-.79-.53-1.55-.79-2.35h-.79V244.2h-.76c.26-.79.49-1.55.76-2.34h-.76v-.8h-2.35v-.76c-.53-.26-1-.53-1.55-.79-.07-1.09.73.33.76-.76-.26-.79-.5-1.58-.76-2.34h-2.35c.27-1.06.53-2.09.76-3.14a9.22,9.22,0,0,1-1.4-.39,3.05,3.05,0,0,0,0-.52,15.67,15.67,0,0,0-1.07-3.72c-4.25-11.66-5.11-23.68,1-35,1.45-2.71,3.25-5.27,4.16-8.21l.18-.61.3.08c.53-2.78,2.05-3.54,3.11-5.49l.79-3.1,1.55-.8V174l2.35-1.55v-1.59h.79c1.45-2.44.63-3.76,3.9-4.65.66-2.68,1.62-2,2.34-4.69H248c.79-3.18,2.47-2.71,3.9-4.7v-1.55c2.6-2.34,5.21-4.69,7.79-7,.53-.76,1.06-1.56,1.59-2.32h1.55v-1.58c1-.5,2.08-1,3.1-1.55l6.25-7h1.58V135h.76c1.52-1.78-.82-1.45,2.35-2.35.26-.79.53-1.55.79-2.34h-4.69v.79h-3.14v.76H269a1.24,1.24,0,0,0-1.58-.76v.76h-2.32v.79h-4.69v.8H258.1v.76h-2.35V135h-2.34v.76h-2.35v.79l-4.66.8v.76h-1.55c-.26.52-.53,1.05-.79,1.58a45.89,45.89,0,0,1-6.24,1.55l-.14.51-10.17.89a6.48,6.48,0,0,1,2.51-1.74,27.5,27.5,0,0,0-8.21,2.24l-11.72,1c12.72-7.08,25.78-13.77,38.26-21.26q-.19,1-.39,1.95c2.94-.3,4.16-1.49,6.24-2.35h2.35c.26-.53.52-1,.76-1.55h3.13v-.79h2.35v-.8h3.9v-.75h3.9c3.2-1,16.61-5.42,21.07-3.9v.76l3.11.79a9.79,9.79,0,0,1-.76,3.9c2.74.3,2.34,1,4.65,1.55v1.59h4.69V124h.8v-.76h1.55v1.55a8.41,8.41,0,0,1,3.14.76c-.27.79-.53,1.58-.8,2.34l-2.34.8v2.34h-1.55c-.83,3.24-9.91,10.87-13.28,11.7a5.88,5.88,0,0,1-4.69,4.69c-.73,2.77-2.22,3-3.9,4.69-2.58,2.84-5.19,5.71-7.8,8.55-.76.53-1.55,1.06-2.34,1.59v1.55h-1.55c-1.46,3.14-4,5.42-6.25,7.8-.53.26-1,.53-1.55.79V174c-.53.27-1.06.53-1.55.8v.75l-3.14,2.35v1.55c-.79.53-1.55,1.06-2.35,1.59v1.55c-.76.53-1.55,1-2.34,1.55v1.56l-1.55.79c-.27,1-.53,2.08-.8,3.1-.49.27-1,.53-1.55.8v1.55h-.76v1.58H248v2.32l-1.56.79v3.14h-.79c-.26,1.82-.53,3.63-.76,5.45h-.79v4.69h-.79q.27,3.76.55,7.53v.08A22.39,22.39,0,0,0,248.21,231c4.51,5.87,11.84,8.82,19,10.7s14.64,3,21.24,6.33c5.09,2.58,9.67,6.48,15.28,7.49,3.13.56,6.4.16,9.48,1s5.62,2.68,8.53,3.81c5,1.94,10.53,1.58,15.86,1.15Q351,260.38,364.28,258.91Z"/></g><g id="圖層_27" data-name="圖層 27"><path class="cls-1" d="M379.25,248c-1.78,3.56-4.41,6.64-6.38,10.1-.32.57-.63,1.14-.91,1.73h-.72c-.5.8-1,1.59-1.55,2.35h-2.35c-.53,1.06-1,2.08-1.55,3.14-2.22-1.32-2.12-2.71-5.45-3.14-1.42,2.41-4,3.24-5.49,5.48h-.76c-.16-.13.43-2.67-.79-1.58v.79a31.91,31.91,0,0,0-3.14,3.1c-1-.23-2.08-.49-3.1-.76v.76h-2.35v.8l-2.34.79v-.79c-.76-.27-1.56-.53-2.35-.8v1.59c-.89-.3-1.49-1.35-3.1-.79-.27.53-.53,1-.8,1.55h-5.45v.79c-.53-.26-1.05-.53-1.55-.79v.79l-7,1.56c-.26-.53-.52-1-.79-1.56H319v-.79a12.3,12.3,0,0,0-6.24,0c-.73-.5-1.46-2.38-2.35-3.11a7.53,7.53,0,0,1-.79,3.11h-.76c.23-.76.49-1.55.76-2.35h-.76v-.76c2.28-.89-1.39-.72-2.35-.79v.79h.76v2.35c-4.42-.5-4.29-1.06-7.79.76.26-.76.52-1.55.79-2.35h-4.69v1.59c-1.59-.46-.7.17-1.55-.79h.76v-.8h-2.35v-.76h-.76c-1,.7.86,1-.79,1.56v-1.56c-.8-.56-.66,1.59-2.35,0v-1.55h-.76v.76h-2.59c-1.77-1.89-3.33-4-5.09-5.93-3.94-4.25-8.92-7.36-13.68-10.67a168.46,168.46,0,0,1-15.29-12c-2.86-2.52-5.78-5.39-6.55-9.13a5.88,5.88,0,0,1,.26-3.57,4.77,4.77,0,0,1,2.5-2.34,5.32,5.32,0,0,0,1.43,1.52c1,.27,2.08.5,3.11.76v.8h1.55v.79c1.32.23,2.61.5,3.9.76.26.53.52,1.06.79,1.55h4.69v.79h2.34v.8h2.32v.76h3.14v.79c1.05.26,2.08.53,3.13.76v.79l5.45.8v.76h2.35V238h4.66c7.3,2.28,12.25,3,21.07,3.1v-1.55a18.52,18.52,0,0,1,1.59,1.55h.76v-.76c.79.27,1.55.53,2.34.76,0,0,.53-1.35,1.56-1.55.26.53.52,1.06.79,1.55h.76v-.76h8.59v-.79h5.48v-.76h.76v.76h.79v-.76h4.69c.23-.53.5-1.06.76-1.58,1.59-.27,3.14-.5,4.69-.76v0A40.82,40.82,0,0,0,351.48,233c3.84-1.88,8.09-4.52,12.07-2.94,1,.4,1.9,1.05,2.9,1.45a13.26,13.26,0,0,0,5.06.63l8.25-.06a2,2,0,0,1,1.4.34,2,2,0,0,1,.48,1.23A24.77,24.77,0,0,1,379.25,248Z"/></g><g id="圖層_26" data-name="圖層 26"><path class="cls-1" d="M287,194.26l2.34.78v.78C287.45,195.35,287.86,195.58,287,194.26Z"/><path class="cls-1" d="M289.31,195.82l2.35.78v.78C289.79,196.91,290.2,197.14,289.31,195.82Z"/><path class="cls-1" d="M291.66,197.38h1.56v.78C291.65,197.72,292.54,198.26,291.66,197.38Z"/><path class="cls-1" d="M293.22,198.16h1.56V199C293.21,198.5,294.1,199,293.22,198.16Z"/><path class="cls-1" d="M297.12,200.51h1.56v.78C297.11,200.84,298,201.38,297.12,200.51Z"/><path class="cls-1" d="M301.8,202.85l8.58,3.12v.78H308C306.18,204.74,303.43,205.32,301.8,202.85Z"/><path class="cls-1" d="M325.21,202.85v1.56h-.78v-.78h-.78v-.78Z"/><path class="cls-1" d="M300.24,206.75h1.56v.78C300.23,207.08,301.13,207.62,300.24,206.75Z"/><path class="cls-1" d="M317.4,207.53H319v.78C317.4,207.86,318.29,208.4,317.4,207.53Z"/><path class="cls-1" d="M306.48,209.87H308v.78C306.47,210.2,307.37,210.74,306.48,209.87Z"/><path class="cls-1" d="M309.6,210.65v1.56h-.78v-.78H308v-.78Z"/><path class="cls-1" d="M311.16,212.21h1.56V213C311.16,212.54,312.05,213.08,311.16,212.21Z"/><path class="cls-1" d="M313.5,213h1.57v.78C313.49,213.32,314.39,213.87,313.5,213Z"/><path class="cls-1" d="M332.23,213h1.56v.78C332.22,213.32,333.12,213.87,332.23,213Z"/><path class="cls-1" d="M337.7,214.55h1.56v.78C337.69,214.88,338.58,215.42,337.7,214.55Z"/><path class="cls-1" d="M306.48,216.11H308v.78C306.47,216.44,307.37,217,306.48,216.11Z"/><path class="cls-1" d="M308,216.89h1.56v.78C308,217.22,308.93,217.77,308,216.89Z"/><path class="cls-1" d="M309.6,217.67h1.56v.78C309.59,218,310.49,218.55,309.6,217.67Z"/><path class="cls-1" d="M322.09,219.23a7.76,7.76,0,0,1,3.12.78v.78h-1.56C323.05,220,322.69,220,322.09,219.23Z"/><path class="cls-1" d="M331.45,220H333v.78C331.44,220.35,332.34,220.89,331.45,220Z"/><path class="cls-1" d="M317.4,220.79H319v.79C317.4,221.13,318.29,221.67,317.4,220.79Z"/><path class="cls-1" d="M325.21,220.79h2.34v.79h-2.34Z"/><path class="cls-1" d="M329.11,223.13q.39-1.15.78-2.34c.89.89.31,0,.78,1.56h.78v.78Z"/><path class="cls-1" d="M333,220.79h1.56v.79h-.78v.77C332.91,221.47,333.48,222.35,333,220.79Z"/><path class="cls-1" d="M336.91,221.58c.89.88.31,0,.79,1.55h-.79Z"/><path class="cls-1" d="M331.45,223.13h2.34v.79h-2.34Z"/><path class="cls-1" d="M326,223.92l3.9.78v.78h-2.34C327,224.68,326.59,224.71,326,223.92Z"/><path class="cls-1" d="M334.57,223.92h1.56v.78C334.57,224.25,335.46,224.79,334.57,223.92Z"/><path class="cls-1" d="M322.09,227h1.56v.78C322.08,227.37,323,227.91,322.09,227Z"/><path class="cls-1" d="M333.79,227h2.34v.78h-2.34Z"/><path class="cls-1" d="M328.33,229.38c.89.89.31,0,.78,1.56h-.78Z"/><path class="cls-1" d="M418.84,225.47v3.9h-1.55l-2.35,3.14h-.79v3.9h-.76c-.53,1.55-1.06,3.1-1.55,4.65H411a6.54,6.54,0,0,0-1.55,3.14l-3.9-.79v.79c-2,1.36-1.55,2.28-2.34,4.69h-.8v.76h.8c.33,2-.4,2.81-.8,3.9h-2.34c-.79,3.24-3,3.93-3.9,7-2.28,0-6.21.89-7,.79a2.12,2.12,0,0,0-2.35-.79v.79l-1.58-.79v.79h-1.56v.76c-1.09.13.33-.7-.76-.76-1.75-.13-1.58.76-1.58.76h-3.9v-2.35c-1.55-.23-3.1-.49-4.66-.76v.63a42,42,0,0,0-3.13-4.65c-1.51-1.82-3.42-3.31-4.64-5.33a37.88,37.88,0,0,0-2.21-3.94,12.28,12.28,0,0,0-4.95-3.29,135,135,0,0,0-17.08-6.2v-.64l-2.34-.79c-.27-.5-.53-1-.76-1.55-2.87-1.49-2.68,2-3.93-2.35,1.88-.79,2.51-.86,3.14-3.1H340V227c-.76-.26-1.55-.49-2.31-.76.46-2.37,1.39-3,2.31-4.69-.86-.46-1.19-1.35-1.55-1.55l-6.24-1.58v-1.56c-2-.13-5.26-1.32-6.25-2.34s-.3,0-.76-1.56c-3.23-.52-13.24-4.39-14.83-6.24,2.35.53,4.66,1.06,7,1.55v.8H319v.79c1.55.23,3.1.5,4.66.76.26.53.53,1.06.79,1.55h3.1V213h2.35v.8h1.55v.76h3.14c.27.53.53,1.05.79,1.58h3.11v.76h3.14v.8l3.89-.8v.8h2.35c.23.52.5,1,.76,1.55h6.24v-.79c-.89-.86-.29,0-.76-1.56l-3.93.8v-.8c.89-.89.33,0,.8-1.55-4.27-.86-6.61-3.34-11.7-3.9v-1.55c1.29.5,2.61,1,3.9,1.55v-1.55l-5.45-.79v-.8l-1.59.8v-.8h-1.55v-.76h-3.14c-.23-.52-.49-1.05-.76-1.58h-3.14v-.76h-.76v-.79h.76v-.76c2.12.79,6.68,2.34,9.39,2.31l.79-.76V206h3.1c.27.53.53,1.06.8,1.58l2.34-.79v-1.55l10.14-.79v-.76s6.54.62,7,.76v.79h9.38V206c.76-.23,1.55-.5,2.34-.76V206c2.38.92,3.7,1.82,6.21,2.34v1.59c3.7,0,6.05.33,8.59,1.55v.76l3.9.79c.26.53.53,1.06.79,1.56h3.9c.53.79,1.06,1.58,1.55,2.34,1.75,1,4.46.63,6.25,1.56v.79l3.14.79c.26.5.52,1,.79,1.55h1.55c.26.53.53,1,.76,1.56h2.35v.79A18.58,18.58,0,0,0,418.84,225.47Z"/><path class="cls-1" d="M230,140.86a6.48,6.48,0,0,0-2.51,1.74l-5.7.5A27.5,27.5,0,0,1,230,140.86Z"/></g><g id="圖層_24" data-name="圖層 24"><path class="cls-1" d="M239.26,206.78c-1.84-6.18-.06-14.08-5-18.18a12,12,0,0,1-2.34-2,4.46,4.46,0,0,1-.69-1.77c-2.77-.75-2-1-5.08-1.49v-1.55h1.55v-3.11h-.79v1.56c-.76.52-1.55,1-2.34,1.55V181h-2.35v1.55c-2.64-.73-2-1.65-4.66-2.34v2.34c-.89-.66-.13.1-.79-.79a4.56,4.56,0,0,1-1.94-2.62c-2.62-3.23-7.23-4-11.39-4.46s-16.51-3.57-24.11-2.13c.29,2.47.62,2.75,2.33,3.76-.6,2.65-2,4.81-3.1,7.16A22.45,22.45,0,0,1,181,185.7c3.92,4.54,6.92,9.77,9.9,15a50.06,50.06,0,0,1,5,10.53c.48,1.62.8,3.28,1.17,4.93.3-1.31.61-2.61.91-3.92.79.53,1.55,1.06,2.35,1.59v1.55h.79c.23.79.49,1.55.76,2.35h1.55l1.59,1.55h1.55V220h1.55v.76l2.35.79c.26.53.53,1,.79,1.56h3.11l2.34,3.13h.79v1.56c1.85-1.13,1.52.23,3.9.79v1.55c.43.73,5.52,2.88,7,3.11-.12.54-.25,1.07-.38,1.6A26.13,26.13,0,0,0,240.8,219a14.36,14.36,0,0,0,.45-6.31C240.87,210.65,239.86,208.78,239.26,206.78Z"/></g><g id="圖層_23" data-name="圖層 23"><path class="cls-1" d="M220.64,279.32h1.55v3.1c-1.65.3-1.49.79-1.55.79h-3.9v.8h-7v.76c-1.06-.27-2.08-.5-3.14-.76v.76l-6.24.79v.79H198.8v.76c-1.58.27-1-.39-1.55-.76-1.58-.46-.69.07-1.58-.79.89-.89.33,0,.79-1.55h-3.9v2.34c-1.55.5-3.14,1-4.69,1.55v-.79c-.89-.89-.3,0-.79-1.55-2.12.49-1.75,1-3.9,1.55-.56-2.15-.2-1.75-2.35-2.34-3.37-2.91-12.32.79-17.14-.76v-.8l-3.9-.79v-.76c-1.42-1.12-1.85-1.78-3.9-2.34v-1.56h-1.58v-1.58c-1.89-1-2.45-2.84-3.9-3.9h-1.55c-.27-.5-.53-1-.8-1.55h-.76c-.52-.8-1.05-1.56-1.55-2.35h-1.58c-.27-.53-.5-1-.76-1.55h-.8v.79l-2.34-.79V266c-2.05-1.39-1.46.82-2.35-2.32-.89-.89-.29,0-.76-1.58h-1.58c-.56-2.15-.2-1.75-2.35-2.35-.3-2.74-1-2.34-1.55-4.65-1.55-.47-.66.06-1.55-.8,1.55-1,1.91-1.78,2.34-3.9l8.59-.79v.79h2.35v.8c2.57.23,5.18.49,7.79.76,4.54,1.36,7.89,1.51,13.12,1.54.41.33.8.65,1.16,1,1.93,1.68,4,3.63,4.22,6.18.24,2.83-1.61,6.46.74,8.06a4.73,4.73,0,0,0,2.46.6c3.75.19,7.93-.12,10.53-2.82,1.62-1.68,2.33-4,3.27-6.15a47.51,47.51,0,0,1,4.55-7.75,5.64,5.64,0,0,0,2.07-.63c.26-.53.53-1,.79-1.56h3.14c1.36,2.09,3.07,2,5.45,3.11v.79h3.11v.8c1.52,1.05,1.81,1.75,3.93,2.34-.27,1.29-.53,2.58-.8,3.9h2.35c.76,1,1.55,2.08,2.35,3.1h.76c.75,1.23-.2,2.28.79,3.14.76.23,1.55.5,2.34.76.76,1.12-.33,2.45.76,3.14h1.59v3.9h1.55c.27.76.53,1.55.76,2.34h-.76C221.17,278.26,220.9,278.79,220.64,279.32Z"/></g><g id="圖層_22" data-name="圖層 22"><path class="cls-1" d="M191.25,252.63a47.51,47.51,0,0,0-4.55,7.75c-.94,2.14-1.65,4.47-3.27,6.15-2.6,2.7-6.78,3-10.53,2.82a4.73,4.73,0,0,1-2.46-.6c-2.35-1.6-.5-5.23-.74-8.06-.22-2.55-2.29-4.5-4.22-6.18-.36-.32-.75-.64-1.16-1h3.27v-.76a4.17,4.17,0,0,1-.38-.28c1.33-3.87-1.13-8.13-.74-12.24.42-4.5,4.09-7.91,7.51-10.86l7.72-6.66a29.29,29.29,0,0,1,5,20c-.18,1.5-.36,3.31.81,4.27a2.88,2.88,0,0,0,1.95.54v1.34h-.76l-.79,3.9A27.18,27.18,0,0,0,191.25,252.63Z"/></g><g id="圖層_19" data-name="圖層 19"><path class="cls-1" d="M206,140.38l-.21.82c-.46.33-.95.64-1.43,1-.32.42-.63.86-.92,1.31v.84c-.23.13-.47.25-.71.37-2.24,4.07-3.55,8.87-7,11.92a17.57,17.57,0,0,1-4.07,2.53L190,161.35c-2.16,3-4.37,6.1-5,9.67a14.49,14.49,0,0,1-4.94.61v.79h-.79c.3,2.61.6,2.87,2.35,3.9-1,4.23-3.87,7.23-4.69,11.69-.24,1.29.76,1.42.79,1.55-.27,2.35-.53,4.69-.79,7-1.29,1.06-2.58,2.08-3.9,3.14-1,1.88-.07,4.09,0,7-.76.27-1.56.53-2.35.79-.33,2.94-1.55,4.13-2.34,6.25-.23,2.08-.5,4.16-.76,6.24h-.8v1.55H166v3.11h-.79V227h-.79v1.59h-.76v3.1c-.53.27-1.06.53-1.55.8v2.31h-.8c-.26,1.85-.52,3.67-.79,5.48h-.76c.27,1.82.5,3.64.76,5.45l1.59.8c.69,1.25-.3,2.34.76,3.1h2.34c1,.7.56,2,2.35,3.14v.76c-1.55,0-2.93,0-4.21,0,1.32.56,2.72,1,4,1.61a21.19,21.19,0,0,1,4.38,3.29l11.36,10.16c.95-2.82,4.89-3.76,5.82-6.59.66-2-.47-4.16-.43-6.27a6.52,6.52,0,0,1,.81-3l-1.45,0,.79-3.9h.76V240.3h.79v-1.55h.8v-3.14h.76v-2.34h.79v-1.56h.76c.26-2.08.53-4.16.79-6.24h.8c1-4.43,2.08-8.85,3.1-13.28l.27.18c0-.18,0-.37.07-.55a37.37,37.37,0,0,1,4.12-11.1A18.22,18.22,0,0,0,199.7,195l-6.8,4.08c.38-8.52,3.94-16.59,8.2-24s9.28-14.35,13-22l-7.45,7a63.71,63.71,0,0,1,11.86-22A12.32,12.32,0,0,0,206,140.38Z"/></g><g id="圖層_21" data-name="圖層 21"><path class="cls-1" d="M233.13,147.45c.79-.53,1.55-1.06,2.34-1.56v-1.58h.79a6.31,6.31,0,0,0,1.56-3.11c.58-.11,1.92-.38,3.23-.68a88.29,88.29,0,0,0,6.69-12.69c.45-1,.87-2.1,1.28-3.16a10.4,10.4,0,0,1-1.06.15c.26-1.32.53-2.61.79-3.9.5-.26,1-.53,1.55-.79v-1.55h.76l-.76-.8v-6.24h.76v-.76l-2.31-.79v-5.45H248v-.8c-.53.27-1.06.53-1.56.8-.26-.8-.52-1.59-.79-2.35-.76.26-1.55.5-2.34.76v-.15a24,24,0,0,0-3.91,3.45A114.27,114.27,0,0,0,222.73,130a10.9,10.9,0,0,0-1.45,4.05c-.15,1.94.69,3.83.74,5.78.07,3.46-2.39,6.5-5.18,8.55s-6,3.5-8.64,5.76c-3.09,2.66-5.14,6.29-7.13,9.84a117.71,117.71,0,0,0-7.43,14.86c-2.33,6-3.57,13.12-.39,18.75.84,1.49,2,2.86,2.43,4.53a11.72,11.72,0,0,1-.15,5q-2.21,12.38-4.48,24.74c.77-.1,1.53-.22,2.29-.37q.39-3,.77-6.06h.8c1-4.43,2.08-8.85,3.1-13.28l.27.18c0-.18,0-.37.07-.55,1.67-9.69,8.7-17.51,12.43-26.61,2.13-5.19,3.2-10.84,6-15.72,2.55-4.52,6.39-8.1,10.13-11.73v-.17h.17q1-1,2-2a8.94,8.94,0,0,0,1-3.5h1.55c.27-.8.53-1.59.76-2.35h.8Z"/></g><g id="圖層_20" data-name="圖層 20"><path class="cls-1" d="M250.3,120.13v-1.55h.76l-.76-.8v-6.24h.76v-.76l-2.31-.79v-5.45H248v-.8c-.53.27-1.06.53-1.56.8-.26-.8-.52-1.59-.79-2.35-.76.26-1.55.5-2.34.76V101.4h-2.35V99.05c-.86-.66-.1.1-.76-.76-3.76.1-7.1.63-9.38,2.35v.76H230c-1.52,1.78.83,1.42-2.35,2.34-.89,3.17-1.91,1.69-2.34,5.45h-1.55c-.6,2.78-2.05,3.51-3.14,5.49-.27,1-.53,2.08-.76,3.1l-1.59.8c-.26,1.28-.49,2.6-.76,3.89-.79.53-1.58,1-2.34,1.56v2.34c-.53.27-1.06.53-1.55.79v1.56h-.8v2.34l-2.34,1.55v1.56l-1.56.79v1.55c-.79.53-1.55,1.06-2.34,1.56-.26,1.05-.53,2.08-.79,3.13-.76.53-1.56,1-2.35,1.56v1.55c-.49.26-1,.53-1.55.79-.09.46-.17.91-.27,1.37-.93,1.09-1.86,2.19-2.77,3.3l-.07,0-.21.33c-.55.67-1.09,1.34-1.63,2h-.5l-.39,1.14-.91,1.17h-1v.31c.28,0,.55,0,.82,0-1.64,2.15-3.27,4.34-4.93,6.6-2.16,3-4.37,6.1-5,9.67a14.49,14.49,0,0,1-4.94.61v.79h-.79c.3,2.61.6,2.87,2.35,3.9a15,15,0,0,1-.95,2.81c8.34-2.95,16.55-6.83,21.15-14.19,1.85-3,3.18-6.55,6.21-8.29,2.7-1.55,6.08-1.21,9-2.25,3.21-1.14,5.61-3.81,7.85-6.37l8.67-9.89a4,4,0,0,0,1.13-2c.06-.5-.07-1,0-1.52.18-1.27,1.54-2,2.7-2.52a32.57,32.57,0,0,0,10.74-8.23l.6-3C249.25,120.66,249.77,120.39,250.3,120.13Z"/></g><g id="圖層_12" data-name="圖層 12"><path class="cls-1" d="M23.23,260.59v.48c.07-.22.15-.43.23-.65Z"/><path class="cls-1" d="M22.45,263.33c.25-.75.52-1.51.78-2.26v1.86Z"/><path class="cls-1" d="M105.16,163.83c-1.56-.47-.67.11-1.56-.78C105.16,163.52,104.27,162.94,105.16,163.83Z"/><path class="cls-1" d="M113,186.46h.75v.94C113.48,187.09,113.23,186.77,113,186.46Z"/></g><g id="圖層_17" data-name="圖層 17"><path class="cls-1" d="M125.24,183.86a12.28,12.28,0,0,1-1.29,3.58,6,6,0,0,1-5.19,3.22c-2.06-.12-3.67-1.62-5-3.26v-.94H113l-.06-.08c0,.05,0,.1,0,.15-1.85,2.95-8.74,5.82-12.45,7-.76-.26-1.55-.52-2.31-.79-.53.76-1.06,1.55-1.58,2.35H90.32c-.26.53-.49,1-.76,1.55H88v.79c-3.11.5-6.25,1-9.35,1.56a2.18,2.18,0,0,0-2.35-.8v.8l-1.55-.8v.8H71.59c-.26-.53-.49-1.06-.76-1.56H70v.76c-2.61-.49-5.19-1-7.8-1.55-.26-.53-.53-1-.79-1.55-.76.53-1.55,1-2.34,1.55v-.79c-1.56-.5-3.11-1-4.66-1.56.46-3.89,2.94-4.32,3.9-7.79H59.9c.53-.79,1.05-1.55,1.55-2.35h.79v-1.58h0a18.57,18.57,0,0,1,5.15.37c2.22.51,4.3,1.5,6.48,2.15a22,22,0,0,0,15.21-1,83.77,83.77,0,0,0,7.81-4.57,46.06,46.06,0,0,1,10-4.38c3.33-1,7.1-1.59,10.14.08a7.88,7.88,0,0,1,3.86,8.11A7.5,7.5,0,0,0,125.24,183.86Z"/></g><g id="圖層_16" data-name="圖層 16"><path class="cls-1" d="M142.61,163.83c-2.14.56-1.75.2-2.34,2.35-2.78.23-3.07,1-5.45,1.55-1.06,3.1-2.08,6.24-3.14,9.35h-.76v1.58h-.79v3.85c-3.09,1.16-6.34,2.15-9.22.77a7.88,7.88,0,0,0-3.86-8.11c-3-1.67-6.81-1.08-10.14-.08a46.06,46.06,0,0,0-10,4.38A83.77,83.77,0,0,1,89.11,184a22,22,0,0,1-15.21,1c-2.18-.65-4.26-1.64-6.48-2.15a18.57,18.57,0,0,0-5.15-.37h0v-2.31l1.56-.8c-.27-.49-.53-1-.76-1.55h.76c0-.15.08-.3.11-.45,3.66.91,7.23,2.25,11,2.69a23.19,23.19,0,0,0,9.55-.88c6-1.84,10.86-6,16-9.45s11.16-6.51,17.33-5.7c4.24.56,9.06,2.76,12.39.07,1.44-1.17,2.14-3,3.15-4.57s2.71-3,4.53-2.63c1.44.31,2.33,1.58,3.21,2.82v.16l.31.28a3.79,3.79,0,0,1,.67.84s0,0,0,0A7.12,7.12,0,0,1,142.61,163.83Z"/></g><g id="圖層_15" data-name="圖層 15"><path class="cls-1" d="M169.93,127.16v-.79H166v-.79h-1.58v-.76h-11.7c-.52-.27-1-.53-1.55-.79v.79h-1.55v.76l-4.69.79v.79h-1.55v.76h-2.35c-.53.8-1.06,1.59-1.55,2.35l-2.35.79v1.55h-1.58c-.8,6.35-7.07,9.39-7.8,15.6h-1.55c-.6,2.31-1.26,1.95-1.55,4.69-4.07,1.15-5.82,4.26-10.94,4.69v1.55h-1.55c-.26.79-.53,1.55-.79,2.35-1.56.52-3.11,1-4.69,1.55v-1.55c-3.24-.07-4.1-.5-5.45,1.55h-.8c.27.79.53,1.58.8,2.34-1.56.47-.66-.1-1.56.8H98.15c.89-1.32.46-1.09,2.31-1.56v-.79H95c-.26.53-.53,1-.79,1.55H91.11v.8H88v.76h-3.9c-.5.79-1,1.58-1.55,2.34l-2.35.79v.76h-3.9v.8H73.94c-1.06.29.33.92-.76.79v-.79H68.49v.79c-1.52,1-1.79,1.78-3.9,2.35-.23.87-.45,1.77-.68,2.65,3.66.91,7.23,2.25,11,2.69a23.19,23.19,0,0,0,9.55-.88c6-1.84,10.86-6,16-9.45s11.16-6.51,17.33-5.7c4.24.56,9.06,2.76,12.39.07,1.44-1.17,2.14-3,3.15-4.57s2.71-3,4.53-2.63c1.44.31,2.33,1.58,3.21,2.82v-.63h1.55l.8,2.35c4.32-.63,2.41-1.59,4.65-3.11l3.14-.79v-.8a6.3,6.3,0,0,1,3.11-1.55v-1.55a16.35,16.35,0,0,0,3.9-1.55l.79-.8v-4.69l1.55-.76v-5.48h.79v-1.55c1.82-1.55,3.64-3.14,5.45-4.69v-3.11a6.31,6.31,0,0,0,1.56-1.55h1.58c.27-.79.5-1.59.76-2.35ZM103.6,163.05c1.56.47.67-.11,1.56.78C103.6,163.36,104.49,163.94,103.6,163.05Z"/></g><g id="圖層_14" data-name="圖層 14"><path class="cls-1" d="M128.57,187.25l4.66-1.58v.79h-.76c-2.21,2.41-4.13.92-4.69,5.45a11.27,11.27,0,0,0,1.33-.35,14.53,14.53,0,0,0-1.91,5.16c-.46,2.09-.85,4.2-1.14,6.32-.44.68-.59,1.59-.62,3.7-1.69,1.95-.66,5-1.56,7.8h-.79v4.69h-.76V224c-.2.24-.4.47-.61.69h-.18v.17a7.55,7.55,0,0,1-1.49,1.14,17,17,0,0,0-3.28,1.86,9,9,0,0,0-1.64,2.42c-2.06,3.76-5,7.32-9.06,8.71-.3-3-.61-6-.92-9v-.57h.8v-3.11h.76v-3.89h.79c.53-3.14,1.06-6.25,1.55-9.39h-.64c0-.15,0-.31,0-.46.2-3.57-.22-7.92,2.75-9.92l-1.37.25h0c1.79-1.32,1.39.83,2.35-2.34H113v-.76H111.4c-.47.66-.7,2.11-2.35,1.55v-.79h-2.34v-.76h.79c2.08-1.32,4.16-2.61,6.24-3.93v-9.35H113l0,.07a2.76,2.76,0,0,0-.24-.88,5.77,5.77,0,0,0-4.19-2.8c-1.7-.35-3.47-.3-5.17-.65a11.38,11.38,0,0,1-5.7-3.09c-1.49-1.51-2.53-4-1.3-5.69,1-1.48,3.14-1.6,4.91-2,6.32-1.42,10.48-7.62,16.52-10a26.08,26.08,0,0,1,6.8-1.37c3-.3,6.66-.24,8.49,2.22,1.11,1.48,1.24,3.43,1.33,5.27,0,.45.05.89.07,1.34-.92,2.71-1.82,5.45-2.74,8.16h-.76v1.58h-.79v4.66h-.8C129.1,184.64,128.84,185.93,128.57,187.25Z"/></g><g id="圖層_13" data-name="圖層 13"><path class="cls-1" d="M230,140.86c-1.07.1-3.36,2.65-4.27,3.33-1.57,1.18-3.18,2.33-4.8,3.44q-4.68,3.18-9.62,6a147.54,147.54,0,0,1-18.56,8.65c-1.37.54-2.76,1.06-4.12,1.63,0,0,0,0,0,0h-.79a4.63,4.63,0,0,1-.85.76l0,0-.35.16a6.08,6.08,0,0,0-1.87.6v.35c-.27.14-.54.29-.8.45h-.78v.49a3.62,3.62,0,0,0-.41.27h-1.14c-.23.44-.45.9-.68,1.35l-.28.23h-1.39v.76h-1.55c-.27.53-.53,1.06-.79,1.55h-2.32l-.79,1.59h-1.55c-.27.5-.53,1-.8,1.55l-2.34.8v.75l-3.11.8c-.26.53-.52,1-.79,1.55h-1.55c-.27.53-.53,1.06-.79,1.55h-1.56c-.26.53-.52,1.06-.79,1.59-1,.23-2.08.49-3.1.76-.27.53-.53,1.06-.8,1.55H155.1l-.79,1.59h-1.56c-.26.49-.52,1-.79,1.55h-1.55c-.26.53-.53,1-.76,1.55l-3.14.79v.76c-.76.27-1.55.53-2.34.8-.27.53-.5,1-.76,1.55l-3.14.79c-.53.76-1,1.55-1.55,2.35h-2.35c-.53.76-1.06,1.55-1.55,2.34h-2.35c-.53.76-1.05,1.56-1.55,2.35h-2.35c-.26.49-.52,1-.79,1.55-1.45,1.37-2,1.59-2.24,3.45-4.7,2.25-9.47,4.37-14.2,6.55a19.61,19.61,0,0,0-6.25,3.9,27.7,27.7,0,0,0-3,1.69c-.53.8-1.06,1.56-1.59,2.35l-3.1.79c-.27.5-.53,1-.79,1.55-.76.27-1.56.53-2.35.8l-2.31,3.1H90.32c-.76,1-1.55,2.08-2.34,3.14-.76.23-1.56.5-2.32.76v1.55H84.08v.79c-.76.27-1.55.53-2.35.8l-2.31,3.1H77.83l-3.1,3.9H73.18c-1.85,2.08-3.67,4.16-5.49,6.24H66.14l-3.9,4.69c-2.61,2.35-5.22,4.7-7.79,7-.27.76-.53,1.55-.8,2.31H52.1v.8c-1.32,1.05-2.61,2.08-3.9,3.13v1.56c-1.05.76-2.08,1.55-3.13,2.34v1.55c-.5.27-1,.53-1.56.76a15.57,15.57,0,0,0-2,4.26,14.22,14.22,0,0,1-6.33,2.8,5,5,0,0,0-6.27-2.94,11.7,11.7,0,0,0-8.82-3.86c.79-2.29,1.58-4.57,2.38-6.86l.78-.4v-1.86c.07-.22.15-.43.23-.65.95-.74,1.93-1.45,2.88-2.18v-1.55c2.21-2.94,3.93-.37,4.69-6.25,2.57-.52,3-1.35,6.24-1.55-.46,2.35-1.39,3-2.35,4.66h.8v-.76h1.55V252c1-.73,1.39-.6,3.14-.76v-2.35c1.65-1,1.68-1.78,3.9-2.34.69.89.56.92,1.55,1.55v-.79c4-1.79,5.88-5.26,10.14-6.25v2.35h3.11v-1.55h1.58c.76-1,1.55-2.09,2.35-3.11h1.55c.53-.79,1-1.58,1.55-2.34h1.55c.53-1.06,1.06-2.09,1.56-3.14h1.58v-.76h1.55l.8-1.59h1.55c.26-.49.53-1,.79-1.55.76-.26,1.56-.53,2.31-.76.53-.79,1.06-1.59,1.59-2.35H81c.27-.52.53-1,.76-1.58h1.59c.76-1,1.55-2.08,2.34-3.11h1.56c.26-.53.52-1,.76-1.55h1.58c1-1.32,2.08-2.61,3.11-3.9h1.55l.79-1.58h1.56c.52-.76,1.05-1.56,1.58-2.35,1-.23,2-.49,3.11-.76.79-1.32,1.55-2.61,2.34-3.9h1.55c.8-1.05,1.56-2.08,2.35-3.13h1.55c.27-.53.53-1,.79-1.56,1.71-1.26,1.42.65,2.24-2a85,85,0,0,0,12.66-6.33c1.53-1,3-2,4.46-3,3.54-1.12,6.3-3.44,10.31-4.29v-1.58a12.42,12.42,0,0,0,7-3.11c.27-.53.53-1.06.79-1.55l4.66-1.59v-.76l2.35-.79c.26-.53.53-1,.79-1.55l3.11-.8v-.75h1.58c.27-.53.5-1.06.76-1.59h1.59c.23-.5.49-1,.76-1.55l3.13-.8.76-1.55h1.56v-.76h1.58v-.79h1.55l1.56-1.55h1.58c.5-.8,1-1.56,1.56-2.35h1.55l1.55-1.55h1.55v-.79h1.59v-.8H184c.27-.49.53-1,.79-1.55h2.32c.26-.53.53-1,.79-1.55l3.9-.8c.26-.49.53-1,.79-1.55h1.55v-.48a15.25,15.25,0,0,0,1.66-.07C208.13,153.52,217.66,142.07,230,140.86Z"/></g><g id="圖層_10" data-name="圖層 10"><path class="cls-1" d="M269.35,40.91A22.78,22.78,0,0,1,263.56,46v.78l-3.9-.78v1.56c-2,.58-2.49,1.23-3.9,2.34v.79l-3.9.78L251.08,53l-3.12.78c-.47,1.55.11.67-.78,1.56v.78h-2.34c-.26.52-.53,1-.78,1.56l-7.81,1.56v.78h-2.34v.78a1.25,1.25,0,0,1-1.56-.78c-1.09-.13.28.45-.78.78h-2.34v.78h-2.34l-.78,1.56h-2.34V64h-1.56c-.26.52-.53,1-.78,1.56H218.3c-.25.52-.52,1-.77,1.56H214.4v.78h-1.55v.78H210.5v.78h-1.56v.78H206.6V71l-7,1.56-.78,1.56h-2.35c-.25.52-.51,1-.77,1.57L185.53,78l-.78,1.56-.37.06a8,8,0,0,0-.27,1.81c-.07,2.66,1.75,4.69,1.87,7.24s-2.3,4.64-4.48,6.16L168.33,104a67,67,0,0,0,24.91-5.45c2-.88,4.08-1.87,6.28-1.95,2.85-.11,5.5,1.3,8.24,2.06,5.32,1.47,10.89.47,16.28-.94l.51-1h1.56v-.78c1.63-1,1.51-.45,3.12,0V94.38a6.06,6.06,0,0,0,3.9-1.56V92l3.9-.78.78-1.56c1.73-1.54,3-2.2,6.25-2.34V85.8L248,85l.78-1.56c1.12.15,1.3.71,3.12.78V82.68c5.08-.65,9-3.79,13.48-5.66a19.15,19.15,0,0,0-.1-7.43c-.46-2.08-1.2-4.36-.19-6.23a8.2,8.2,0,0,1,2-2.17A36.72,36.72,0,0,0,278.7,40.88,25.77,25.77,0,0,0,269.35,40.91Z"/></g><g id="圖層_6" data-name="圖層 6"><path class="cls-1" d="M291.69,18a19.07,19.07,0,0,0-1,2.87c-1.94,6.9-4,13.82-7.37,20.17C273.68,59.34,254.82,70.63,236.4,80q-13.46,6.85-27.26,13c-3.61,1.61-14.49,5.47-8,11.27a5,5,0,0,0,2.35,1.1l-6.23.69v.78h-1.56v.78l-4.69.78v.78h-5.46V110H184v.78l-8.59.78v.78h-2.33c-.27.52-.52,1-.78,1.56h-1.56q-.41.78-.78,1.56H166l-.78,1.56-2.34-.78V117h-1.56v.78h-3.12v.78h-1.38a77.67,77.67,0,0,0,4.25-14.07c-3.92.47-9,.31-10.46-3.36a6.75,6.75,0,0,0-.73-1.72c-.77-1-2.2-1-3.43-1.16-2.63-.36-4.95-1.81-7.35-3a4,4,0,0,1,1.93-.93v1.56l4.69-.78v-.78h3.9V93.6l3.12-.78V92l5.46-.78L159,89.7h2.34l1.56-2.34,6.28-1.4h0c10.55,1.07,23.87-3.72,32.21-5.24,8.7-1.58,17.4-3.17,25.93-5.5,14.08-3.85,27.87-9.91,38.56-19.85s18-24.17,17.25-38.75a30.34,30.34,0,0,0-.78-5.67,15.55,15.55,0,0,0,6.17,3.84l.78,2.34h1.56v.78h.78S291.68,18,291.69,18Z"/></g><g id="圖層_8" data-name="圖層 8"><path class="cls-1" d="M265.89,55.37c-10.69,9.94-24.48,16-38.56,19.85-8.53,2.33-17.23,3.92-25.93,5.5C193.06,82.24,179.74,87,169.19,86l.74-.16c.51-.79,1-1.57,1.56-2.34l5.46-.79v-.78l3.12-.78v-.78l4.68-.78.78-1.56,10.15-2.34c.25-.52.52-1,.77-1.56h2.35l.78-1.56,7-1.56v-.78h2.34v-.78h1.56v-.78h2.34v-.78h1.56v-.78h3.13c.25-.52.51-1,.77-1.56h3.13q.38-.78.78-1.56h1.56v-.78h2.34l.78-1.56h2.34v-.78h2.34c1.06-.33-.32-.91.78-.79a1.23,1.23,0,0,0,1.56.79V60h2.34v-.77l7.81-1.57q.38-.78.78-1.56h2.33v-.78c.9-.89.32,0,.79-1.56l3.12-.78.78-1.56,3.9-.78V49.9c1.41-1.11,1.86-1.76,3.9-2.34V46l3.9.78V46c4.56-2.45,11.84-11.62,12.49-17.95l-3.12-2.34v-.78h-1.56c-.52-.78-1.05-1.56-1.56-2.34h-1.56q-.79-1.17-1.56-2.34h-1.57l-.78-1.56h-1.56c-1.94-1.13-2.71-2.49-5.46-3.12V14c-3.88-.8-2.75-1.61-4.68-3.91-.52-.26-1-.51-1.56-.78V7h-.78l-.78-2.34c3.07-.14,12.66-1,17.17,0v.78L269,4.64v.78h3.12V6.2h3.12V7L280,8.54v.78h1.56c.26.52.52,1,.78,1.56l.07.07a30.34,30.34,0,0,1,.78,5.67C283.87,31.2,276.58,45.43,265.89,55.37Z"/></g><g id="圖層_5" data-name="圖層 5"><path class="cls-1" d="M184,19.47a1.28,1.28,0,0,0-1.56.78L177,19.47v-.78l-4.68-.78v-.78h-1.56v-.78h-2.35v-.78l-4.57.19-14.15.59v-.78l-3.12-.78c-.26-.52-.53-1-.78-1.56h-1.57v-.78l-2.33-.78V10.1h-1.57V8.54l-5.46-.78v.78c-4.07.14-3,.8-4.68,3.13h-.78a5.54,5.54,0,0,0-1.56,3.12l-3.9.78c-.86,1.8-1.85,2.54-2.35,4.68H119.2v1.56h-1.09c.16,3.06.52,6.16.87,9.11.18,1.46.48,3.09,1.67,4a5.09,5.09,0,0,0,3.2.66,28.2,28.2,0,0,0,11-2.65c-1.9,4.12,1.59,9.63,6.12,9.69a6,6,0,0,0,3.89,6.78,5.36,5.36,0,0,1,2.23.94,3.69,3.69,0,0,1,.79,2.33l1,9.45c1.73-.14,3.46-.37,5.17-.67.12-.46.23-.91.34-1.37a13,13,0,0,0,5.46-3.12h.78c-.88-2.3.13-.86-2.34-.78v-.78h1.56c.54-2.12,1.06-1.76,1.56-3.9h3.12A6.52,6.52,0,0,1,166,48.34h.78V46.78l1.56-.78V42.88a59.26,59.26,0,0,0,2.35-8.59h1.56c.26-1.56.51-3.12.78-4.68,3.6-1,5-3.8,8.58-4.68l.78-3.12c1.56-.47.67.11,1.56-.78.88-.67.12.1.78-.78Z"/></g></svg>