<svg xmlns="http://www.w3.org/2000/svg" viewBox="0 0 428.27 432.07"><defs><style>.cls-1{fill:#fcfcfc;opacity:0.62;}</style></defs><g id="all"><path class="cls-1" d="M145.74,92h1.56c-.66.89.1.12-.78.78v.78C145.63,92.71,146.2,93.6,145.74,92Z"/><path class="cls-1" d="M120,381.54c.9.89,0,.31,1.57.78C120.66,381.43,121.55,382,120,381.54Z"/><path class="cls-1" d="M248,383.1l-.78,2.34H248v-.78c.32-.45,1.27-.11.78-1.56Z"/><path class="cls-1" d="M243.28,383.88c.88.89,0,.31,1.56.78C244,383.77,244.83,384.35,243.28,383.88Z"/><path class="cls-1" d="M265.13,387h1.56v-2.34c-2.5.65-2.27.92-2.35,3.9h.79Z"/></g><g id="圖層_30" data-name="圖層 30"><path class="cls-1" d="M269.81,385.44c-.47,2.9-.46,1.79,0,4.68l-.78-.78-2.34.78v.78h-2.35c.57,2.15.22,1.75,2.35,2.34v-1.56H269v.78h.78v2.34L262,394v.78l-3.9.78c.43-2.17.6-.08,0-2.34-3.11.61-4.92,2.37-7.8,3.12V394l7-1.56.78-2.34-2.34.78c-1-.55,1-1.66-.78-1.56v.78h-1.56v.78l-2.34-.78v.78h-1.56v.78l-2.35.78v2.34h-1.55V394l-6.25,2.34c-.73,1.41-1.08,1.23-1.56,3.12,3.1-.05,5-.31,7-1.56.52-.78,1-1.56,1.55-2.34l2.35.78v.78c-1.56,1.33-.67,1.87-1.57,3.12l-1.55,1.56h-1.56c-.52,1-1,2.09-1.57,3.13-.88-.89-.31,0-.78-1.57h-1.56c-.83,1.05-2.23,1.38-3.12,2.35l.78,1.55-7,1.57v.78h-1.56v.78h-2.34v.78h-1.56c-.26.52-.52,1-.79,1.56l-7,.78v1.56a7.59,7.59,0,0,1,3.11.78c-.25.78-.51,1.56-.77,2.34-2.53.26-2.3.71-3.91,1.56v-1.56c1.35-.88,1.06-.49,1.57-2.34H214.4v-.78a21.2,21.2,0,0,1-3.12.78c.3-2.76,1-2.37,1.56-4.68h-.78c-.89.88,0,.31-1.56.78v3.12h-3.12l-.78-2.34h-.78v1.56c.89.89.31,0,.78,1.56-3.07.09-5.58-.06-7-1.56.88-.89.31,0,.78-1.56l-5.46.78v.78h-.79v3.12h-.78v-2.34l-6.24-.78.78,2.34h-.78c-1.24,1.49-2.91,2.11-5.46,2.34v-1.56c-1.62.85-1.38,1.26-3.9,1.56l-.78-2.34h.78v-.78h3.9v-1.56c-3.55.2-3.42.27-6.25,1.56.1,2.47,1.53,1.46-.77,2.34-.89-.89,0-.31-1.56-.78.25.78.52,1.56.78,2.34h-.78v.78l-3.9.78v-.78h.78c.88-.88,0-.31,1.56-.78v-1.56h-3.13l-.78,4.68h-3.9l.78-1.56h-.78v.78l-1.56-.78-.78,1.56-2.34-.78v.78h-2.34v-.78c1.34-.88,1.06-.49,1.56-2.34l3.12.78v-.78c.89-.89.31,0,.78-1.56l-7.8.78v3.12c-2.13.34-5.49,1.54-8.58.78a2.15,2.15,0,0,0-2.35-.78v.78h-.78v-.78h-.77v.78h-3.91v.78H134l-.78,1.56-7,.78v.78l-3.12.78v.79c-1.4.35-3.09-1.59-5.47-.79v.79h-1.56v.78h-6.24a16.44,16.44,0,0,0-2.34-6.25h-.78a6.52,6.52,0,0,1-1.56-3.12H102v-3.9l2.34-.78a26.6,26.6,0,0,1,.78-6.24c-1.57-.45-.68.09-1.56-.78h.78v-2.34l1.56-.78v-1.57h.78v-1.56l1.56-.77.78-3.91,1.56-.78V394.8h.78v-2.34l2.34-.78c.89-.89,0-.31,1.56-.78V387h1.56c.74-1.41,1.08-1.23,1.57-3.12.88-.66.11.1.77-.78a16.45,16.45,0,0,0-3.12.78v-.78h-1.56c.57-2.16.22-1.75,2.34-2.34.89-.89,0-.32,1.57-.79v-1.55l4.68-.79c-.27.79-.53,1.56-.78,2.34h2.34c2.69-2.38,6,.59,8.49.26q.32.31.66.6a9.4,9.4,0,0,0,4.31,1.61c9,1.73,18.39,3.45,27.36,2.33l-1.81,1.45v1.56c.89-.66.11.1.78-.78l.78.78,9.37-.78v-.78h1.56v-.78c1.34-.33,1.34.73,1.56.78,3.49.81,5.93-.72,7.8-1.56v1.56c.89.65.12-.1.78.78-5.5.07-7.68,2.12-13.26,2.34v1.56c-1.35-.68-.27-.09-.78-1.56h-.78v1.56l-2.34.78v.78H166.8L166,394c-.88.66-.11-.1-.78.78h4.69c1.8-1.5,5,0,7.8-.78v-.78h4.68v-.78h2.34v-.78a1.21,1.21,0,0,1,1.56.78h.78v-.78h5.46v-.78h7.81v-.78h7.8v-.78l4.68-.78v-.78c1.32-.35,3.12,1,3.9,1.56.26-.78.52-1.56.79-2.34,1.29-.87,5-.83,6.24-1.56v-.78c1.75-1.53.08-1.78,2.34-.78v-1.56l1.56.78v-.78h1.56l.78-1.56h3.12a10.22,10.22,0,0,0,4.68-3.13c-2.12-.9-3.26-1.39-3.9-3.9.89-.66.12.1.78-.78,2.48,1.48,2.57,3.43,6.25,3.9.25-.78.51-1.56.77-2.34l-1.56-.78c-1.16-.93-.12-.34,0-2.34l-1.56.78-.78-1.56h-1.56v-.78l-2.34.78v-.78h.78v-5.46H237l.78-4.68h.78a7.8,7.8,0,0,0,.78,3.12c1.57-.45.68.09,1.57-.78s.3,0,.77-1.56H248v.78l3.12.78.78,1.56h1.56v.78l3.12-.78v1.56l3.12.78.78,1.56c1.6.83,4.64.92,6.25,1.56.55,1.47,1.07,1.66,0,3.12l3.12.78c.23.58-1.1,1.59-.78,3.12.25,1.27,1.06,2,0,4.69-2.31-.84-1.62-.8-3.91,0v.78h2.34v3.12Z"/></g><g id="圖層_21" data-name="圖層 21"><path class="cls-1" d="M233.13,147.45c.79-.53,1.55-1.06,2.34-1.56v-1.58h.79a6.31,6.31,0,0,0,1.56-3.11c.58-.11,1.92-.38,3.23-.68a88.29,88.29,0,0,0,6.69-12.69c.45-1,.87-2.1,1.28-3.16a10.4,10.4,0,0,1-1.06.15c.26-1.32.53-2.61.79-3.9.5-.26,1-.53,1.55-.79v-1.55h.76l-.76-.8v-6.24h.76v-.76l-2.31-.79v-5.45H248v-.8c-.53.27-1.06.53-1.56.8-.26-.8-.52-1.59-.79-2.35-.76.26-1.55.5-2.34.76v-.15a24,24,0,0,0-3.91,3.45A114.27,114.27,0,0,0,222.73,130a10.9,10.9,0,0,0-1.45,4.05c-.15,1.94.69,3.83.74,5.78.07,3.46-2.39,6.5-5.18,8.55s-6,3.5-8.64,5.76c-3.09,2.66-5.14,6.29-7.13,9.84a117.71,117.71,0,0,0-7.43,14.86c-2.33,6-3.57,13.12-.39,18.75.84,1.49,2,2.86,2.43,4.53a11.72,11.72,0,0,1-.15,5q-2.21,12.38-4.48,24.74c.77-.1,1.53-.22,2.29-.37q.39-3,.77-6.06h.8c1-4.43,2.08-8.85,3.1-13.28l.27.18c0-.18,0-.37.07-.55,1.67-9.69,8.7-17.51,12.43-26.61,2.13-5.19,3.2-10.84,6-15.72,2.55-4.52,6.39-8.1,10.13-11.73v-.17h.17q1-1,2-2a8.94,8.94,0,0,0,1-3.5h1.55c.27-.8.53-1.59.76-2.35h.8Z"/></g><g id="圖層_12" data-name="圖層 12"><path class="cls-1" d="M113,186.46h.75v.94C113.48,187.09,113.23,186.77,113,186.46Z"/></g><g id="圖層_18" data-name="圖層 18"><path class="cls-1" d="M113.08,226.94c0-2.18.63-4.55-.52-6.4a4.45,4.45,0,0,0-4.39-2.14c-.22,1.32-.44,2.64-.67,4h-.79v3.89H106v3.11h-.8v4.69h-.79v12.49h-.76v1.55c-1.19,2.31-2.81,3.53-3.14,7-4.92,2.31-9.87,4.65-14.8,7H81.73c-.26.14-.51.29-.76.44v.35h-.58a16,16,0,0,0-1.7,1.23,34.89,34.89,0,0,1-4,3.53c-2.72,1.7-6.6,1.69-8.46,4.31,1.16,1.23.58,3.25,1.15,4.84.89,2.52,4.11,3.09,6.76,3.45,3.75.52,7.62,1.52,10.46,4a41,41,0,0,1,4.31,5.14h.63v.75s0,0,0,0h2.31V291h10.14v-.76h1.55v-.79c.76-.27,1.55-.53,2.35-.8.56-2.64,1.71-3.73,3.1-5.45h.79c.63-.92.63-3.3,1.56-3.89H113c.59-2.12.2-1.79,2.34-2.35.6-2.11,1.29-2.41,2.35-3.9h.79v-3.14h.76v-3.1h.8V254.34h.79c-.21-3.65-.41-7.28-.61-10.92C117.16,238.13,113,233,113.08,226.94Z"/></g><g id="圖層_6" data-name="圖層 6"><path class="cls-1" d="M291.69,18a19.07,19.07,0,0,0-1,2.87c-1.94,6.9-4,13.82-7.37,20.17C273.68,59.34,254.82,70.63,236.4,80q-13.46,6.85-27.26,13c-3.61,1.61-14.49,5.47-8,11.27a5,5,0,0,0,2.35,1.1l-6.23.69v.78h-1.56v.78l-4.69.78v.78h-5.46V110H184v.78l-8.59.78v.78h-2.33c-.27.52-.52,1-.78,1.56h-1.56q-.41.78-.78,1.56H166l-.78,1.56-2.34-.78V117h-1.56v.78h-3.12v.78h-1.38a77.67,77.67,0,0,0,4.25-14.07c-3.92.47-9,.31-10.46-3.36a6.75,6.75,0,0,0-.73-1.72c-.77-1-2.2-1-3.43-1.16-2.63-.36-4.95-1.81-7.35-3a4,4,0,0,1,1.93-.93v1.56l4.69-.78v-.78h3.9V93.6l3.12-.78V92l5.46-.78L159,89.7h2.34l1.56-2.34,6.28-1.4h0c10.55,1.07,23.87-3.72,32.21-5.24,8.7-1.58,17.4-3.17,25.93-5.5,14.08-3.85,27.87-9.91,38.56-19.85s18-24.17,17.25-38.75a30.34,30.34,0,0,0-.78-5.67,15.55,15.55,0,0,0,6.17,3.84l.78,2.34h1.56v.78h.78S291.68,18,291.69,18Z"/></g><g id="圖層_2" data-name="圖層 2"><path class="cls-1" d="M163.79,15.76c-.36,5.53-3,10.88-7.56,13.93-2.59,1.72-5.73,2.77-7.7,5.18a20.3,20.3,0,0,0-2.4,4.45,37.45,37.45,0,0,1-18.28,18.14c-6.45,2.93-13,4.67-19.29,7.88-.55-.7-1.18-1.29-1.84-2.17h-.78l-.78-7L102,53.8c-1.43-3.21,1.72-4.89,2.34-6.24V45.22h.78l1.56-4.68L109.06,39l1.56-4.69,1.56-.78.78-3.9,1.56-.78V25.71h.78a6.14,6.14,0,0,0,1.56-3.9h2.34V20.25h2.34c.5-2.14,1.49-2.88,2.35-4.68l3.9-.78a5.54,5.54,0,0,1,1.56-3.12h.78c1.67-2.33.61-3,4.68-3.13V7.76l5.46.78V10.1h1.57v1.57l2.33.78v.78h1.57c.25.52.52,1,.78,1.56l3.12.78v.78Z"/></g></svg>