<svg xmlns="http://www.w3.org/2000/svg" viewBox="0 0 428.27 432.07"><defs><style>.cls-1{fill:#fcfcfc;opacity:0.85;}</style></defs><g id="all"><path class="cls-1" d="M308.82,262.15v-2.34H308a3.08,3.08,0,0,1-1.56,1.56v.78H308v.78h5.46v-.78h.79v-.78h-3.91C309.49,262.26,310.38,261.68,308.82,262.15Z"/><path class="cls-1" d="M357.2,266.05h1.56v.78C357.19,266.39,358.09,266.92,357.2,266.05Z"/><path class="cls-1" d="M286.19,270h1.56v.78C286.18,270.29,287.08,270.83,286.19,270Z"/><path class="cls-1" d="M244.06,329.26h1.56v-.78h-.78v-.78h-.78Z"/><path class="cls-1" d="M174.61,343.3v-1.56L177,341V339.4h-.78c-1.38,1.55-1.67.65-3.12,1.56l-.78,1.56c-2.11,1.21-1.48-.85-3.12,1.56h-.79v.79h.79c.45.32.11,1.27,1.56.78v-.78C172.84,344.36,172.48,343.84,174.61,343.3Z"/><path class="cls-1" d="M176.17,342.52l-1.56,2.35h1.56v-.79c.32-.45,1.27-.11.78-1.56Z"/><path class="cls-1" d="M228.31,271.06c.27.27.09,0,.24.48h-.24Z"/></g><g id="圖層_3" data-name="圖層 3"><path class="cls-1" d="M169.15,344.86h-.79v-.78h.79c1.63-2.41,1-.36,3.12-1.56.26-.52.51-1,.78-1.56,1.44-.92,1.74,0,3.12-1.56H177V341l-2.34.78v1.56c-2.13.54-1.77,1.06-3.9,1.56v.78C169.26,346.13,169.6,345.19,169.15,344.86Z"/><polygon class="cls-1" points="245.62 329.26 244.06 329.26 244.06 327.69 244.84 327.69 244.84 328.47 245.62 328.47 245.62 329.26"/><polygon class="cls-1" points="245.62 328.47 245.62 329.26 244.06 329.26 244.06 327.69 244.84 327.69 244.84 328.47 245.62 328.47"/><path class="cls-1" d="M177,339.4V341l-2.34.78v1.56c-2.13.54-1.77,1.06-3.9,1.56v.78c-1.45.49-1.11-.45-1.56-.78h-.79v-.78h.79c1.63-2.41,1-.36,3.12-1.56.26-.52.51-1,.78-1.56,1.44-.92,1.74,0,3.12-1.56Z"/><path class="cls-1" d="M177,343.57c-.19.26-.61.24-.81.51v.78h-1.56l.21-.32h0l1.34-2H177C177.15,343.1,177.11,343.39,177,343.57Z"/><path class="cls-1" d="M16.19,274.63c-.52,2.37-1.25,1.75-1.55,2.34v-2.34Z"/><path class="cls-1" d="M23.12,210.78l-.46.9C22.46,211.26,22.66,210.58,23.12,210.78Z"/></g><g id="圖層_31" data-name="圖層 31"><path class="cls-1" d="M252.25,322.41c-4.53,3.78-10.16,5.91-15.41,8.59a79.51,79.51,0,0,0-11.06,6.84h-.45l-1.45,1.45-.14.11h-1.53l-1.57,2.34-3.9.78-3.12,3.9h-2.34l-3.12,3.9-3.12.78-.78,1.56H202.7l-2.34,3.13H198.8c-.52.77-1.05,1.56-1.56,2.34h-1.56v.78a10.23,10.23,0,0,1-4.69,2.34v1.56h-1.56l-2.34,3.12h-1.56l-.78,1.56H184l-.78,1.56h-1.56v.78a6.11,6.11,0,0,1-3.12,1.56c-.54,1.94-.41,1.27-1.56,2.34v.78h-1.57l-7.8,8.59-3.9,3.12v1.56c.89-.66.11.1.78-.78l.78.78,9.37-.78v-.78h1.56v-.78c1.34-.33,1.34.73,1.56.78,3.49.81,5.93-.72,7.8-1.56v1.56c.89.65.12-.1.78.78-5.5.07-7.68,2.12-13.26,2.34v1.56c-1.35-.68-.27-.09-.78-1.56h-.78v1.56l-2.34.78v.78H166.8l-.48,1-.28,0c-3.91.37-8.7.32-10.71-3.06a7.07,7.07,0,0,0-1.35-2.1,4.1,4.1,0,0,0-2.7-.61,44.23,44.23,0,0,0-30,12.74c-1.49-.7-.6-3,.58-4.11,3.89-3.74,9.44-6.7,9.32-12.79a24.07,24.07,0,0,0-.44-3.65,4.29,4.29,0,0,0,3.29.1c.26-.78.52-1.55.78-2.34l2.34.79v-.79h-.78l.78-1.56c1.44-.83,2.81.15,3.9-.78l3.12-3.9c3.71-2.68,7.14-4.43,9.37-8.58-2.17-2-.68-2.55,0-5.46h0c1.36-1,2.71-2.1,4.11-3.2q9.82-7.73,20-15a22.72,22.72,0,0,1,7.28-4c4-1.05,8.17.05,12.23-.49,6.33-.85,11.5-5.55,17.65-7.27,3.33-.93,6.85-1,10.22-1.69,9.26-2,17.25-9.21,26.72-9a3.33,3.33,0,0,1,1.87.44C255.28,318.32,253.88,321.06,252.25,322.41Z"/><path class="cls-1" d="M252.25,322.41c-4.53,3.78-10.16,5.91-15.41,8.59a79.51,79.51,0,0,0-11.06,6.84h-.45l-1.45,1.45-.14.11h-1.53l-1.57,2.34-3.9.78-3.12,3.9h-2.34l-3.12,3.9-3.12.78-.78,1.56H202.7l-2.34,3.13H198.8c-.52.77-1.05,1.56-1.56,2.34h-1.56v.78a10.23,10.23,0,0,1-4.69,2.34v1.56h-1.56l-2.34,3.12h-1.56l-.78,1.56H184l-.78,1.56h-1.56v.78a6.11,6.11,0,0,1-3.12,1.56c-.54,1.94-.41,1.27-1.56,2.34v.78h-1.57l-7.8,8.59-3.9,3.12v1.56c.89-.66.11.1.78-.78l.78.78,9.37-.78v-.78h1.56v-.78c1.34-.33,1.34.73,1.56.78,3.49.81,5.93-.72,7.8-1.56v1.56c.89.65.12-.1.78.78-5.5.07-7.68,2.12-13.26,2.34v1.56c-1.35-.68-.27-.09-.78-1.56h-.78v1.56l-2.34.78v.78H166.8l-.48,1-.28,0c-3.91.37-8.7.32-10.71-3.06a7.07,7.07,0,0,0-1.35-2.1,4.1,4.1,0,0,0-2.7-.61,44.23,44.23,0,0,0-30,12.74c-1.49-.7-.6-3,.58-4.11,3.89-3.74,9.44-6.7,9.32-12.79a24.07,24.07,0,0,0-.44-3.65,4.29,4.29,0,0,0,3.29.1c.26-.78.52-1.55.78-2.34l2.34.79v-.79h-.78l.78-1.56c1.44-.83,2.81.15,3.9-.78l3.12-3.9c3.71-2.68,7.14-4.43,9.37-8.58-2.17-2-.68-2.55,0-5.46h0c1.36-1,2.71-2.1,4.11-3.2q9.82-7.73,20-15a22.72,22.72,0,0,1,7.28-4c4-1.05,8.17.05,12.23-.49,6.33-.85,11.5-5.55,17.65-7.27,3.33-.93,6.85-1,10.22-1.69,9.26-2,17.25-9.21,26.72-9a3.33,3.33,0,0,1,1.87.44C255.28,318.32,253.88,321.06,252.25,322.41Z"/></g><g id="圖層_27" data-name="圖層 27"><path class="cls-1" d="M379.25,248c-1.78,3.56-4.41,6.64-6.38,10.1-.32.57-.63,1.14-.91,1.73h-.72c-.5.8-1,1.59-1.55,2.35h-2.35c-.53,1.06-1,2.08-1.55,3.14-2.22-1.32-2.12-2.71-5.45-3.14-1.42,2.41-4,3.24-5.49,5.48h-.76c-.16-.13.43-2.67-.79-1.58v.79a31.91,31.91,0,0,0-3.14,3.1c-1-.23-2.08-.49-3.1-.76v.76h-2.35v.8l-2.34.79v-.79c-.76-.27-1.56-.53-2.35-.8v1.59c-.89-.3-1.49-1.35-3.1-.79-.27.53-.53,1-.8,1.55h-5.45v.79c-.53-.26-1.05-.53-1.55-.79v.79l-7,1.56c-.26-.53-.52-1-.79-1.56H319v-.79a12.3,12.3,0,0,0-6.24,0c-.73-.5-1.46-2.38-2.35-3.11a7.53,7.53,0,0,1-.79,3.11h-.76c.23-.76.49-1.55.76-2.35h-.76v-.76c2.28-.89-1.39-.72-2.35-.79v.79h.76v2.35c-4.42-.5-4.29-1.06-7.79.76.26-.76.52-1.55.79-2.35h-4.69v1.59c-1.59-.46-.7.17-1.55-.79h.76v-.8h-2.35v-.76h-.76c-1,.7.86,1-.79,1.56v-1.56c-.8-.56-.66,1.59-2.35,0v-1.55h-.76v.76h-2.59c-1.77-1.89-3.33-4-5.09-5.93-3.94-4.25-8.92-7.36-13.68-10.67a168.46,168.46,0,0,1-15.29-12c-2.86-2.52-5.78-5.39-6.55-9.13a5.88,5.88,0,0,1,.26-3.57,4.77,4.77,0,0,1,2.5-2.34,5.32,5.32,0,0,0,1.43,1.52c1,.27,2.08.5,3.11.76v.8h1.55v.79c1.32.23,2.61.5,3.9.76.26.53.52,1.06.79,1.55h4.69v.79h2.34v.8h2.32v.76h3.14v.79c1.05.26,2.08.53,3.13.76v.79l5.45.8v.76h2.35V238h4.66c7.3,2.28,12.25,3,21.07,3.1v-1.55a18.52,18.52,0,0,1,1.59,1.55h.76v-.76c.79.27,1.55.53,2.34.76,0,0,.53-1.35,1.56-1.55.26.53.52,1.06.79,1.55h.76v-.76h8.59v-.79h5.48v-.76h.76v.76h.79v-.76h4.69c.23-.53.5-1.06.76-1.58,1.59-.27,3.14-.5,4.69-.76v0A40.82,40.82,0,0,0,351.48,233c3.84-1.88,8.09-4.52,12.07-2.94,1,.4,1.9,1.05,2.9,1.45a13.26,13.26,0,0,0,5.06.63l8.25-.06a2,2,0,0,1,1.4.34,2,2,0,0,1,.48,1.23A24.77,24.77,0,0,1,379.25,248Z"/></g><g id="圖層_12" data-name="圖層 12"><path class="cls-1" d="M23.23,260.59v.48c.07-.22.15-.43.23-.65Z"/><path class="cls-1" d="M22.45,263.33c.25-.75.52-1.51.78-2.26v1.86Z"/><path class="cls-1" d="M114.35,273.51a5.38,5.38,0,0,1-1.19-4c-2.17,1.9-5.38,2.2-8.17,1.48a26.8,26.8,0,0,1-7.69-3.85c1.08-2.44,2.15-4.87,3.22-7.31a34,34,0,0,0-8.78-.57l-6.08,2.87H81v.79H78.63v.79H76.28v.76H73.94c-.76,1.06-1.56,2.08-2.35,3.14-1.25.46-1.42-.76-1.55-.79-2.91-.56-5.05.3-6.24,1.55H63v2.35c-3.57.16-4.13,1-5.49-.8h-.76v2.35H54.45v-1.55c-3,.36-3.24,1.29-6.25,1.55-.26.79-.52,1.59-.79,2.35l-6.24.79c.1-.43.2-.84.32-1.23a14.22,14.22,0,0,1-6.33,2.8,5,5,0,0,0-6.27-2.94,11.7,11.7,0,0,0-8.82-3.86c.79-2.29,1.58-4.57,2.38-6.86l-.77.39v1.56c-.53.26-1.06.53-1.59.76v2.34c-.49.27-1,.53-1.55.79-.26,1.56-.53,3.11-.79,4.7H16.19c.47-1.59-.09-.7.8-1.59v-3.11h-.8c-.52,1-1,2.09-1.55,3.11h.79v.79l-1.58.8c-.23,1-.5,2.08-.76,3.1h1.55v-2.34h1.55c-.52,2.37-1.25,1.75-1.55,2.34v3.14c-.53.23-1,.49-1.55.76v1.55H12.3c-1.06,1.16-.4,1.06-2.35,1.59-.66,3.6-2.74,7-5.45,8.59,1.82,2.84,8.59,4.09,12.49,4.65v1.59h6.24v-.79h2.35v-.8h.76c2-.16,6.34,2.05,9.38.8.26-.53.49-1.06.76-1.56h3.14v-.79a2.16,2.16,0,0,1,2.34.79l9.35-.79v-.79h2.34v-.76l8.59-.8v-.75h3.11v-.8h3.9V291h7.83v-.76h3.1v-.79h9.38v.79h2.35V291h10.14v-.76h1.55v-.79c.76-.27,1.55-.53,2.35-.8.56-2.64,1.71-3.73,3.1-5.45h.79c.63-.92.63-3.3,1.56-3.89H113c.59-2.12.2-1.79,2.34-2.35a7.62,7.62,0,0,1,.62-1.56,3.35,3.35,0,0,0-.27-.45C115.26,274.44,114.76,274,114.35,273.51Z"/></g><g id="圖層_9" data-name="圖層 9"><path class="cls-1" d="M161.09,104.5a77.67,77.67,0,0,1-4.25,14.07h-2.52v.78h-1.56l-.78,1.56h-2.34v.78h-2.35c-.26.13-.47,1.21-1.55,1.56v-.78H145v.78l-6.24.78v.78h-1.56v.78H134c-3.52,1.26-9.24,5.07-15.6,3.12v-.78h-3.91v-.78c-3.44-.83-11.74-10-9.36-16.38a51.58,51.58,0,0,1,3.12-4.69h2.34l1.56-2.34h2.34V103h.78c-.12-1.27-.78-1.56-.78-1.56v-.78h.78c1.07-2.62,1.06-3,4.68-3.12v.78l3.91-.78v-.78l14-1.56v.78a2.1,2.1,0,0,0,1.19-.63c2.4,1.14,4.72,2.59,7.35,3,1.23.17,2.66.18,3.43,1.16a6.75,6.75,0,0,1,.73,1.72C152.1,104.81,157.17,105,161.09,104.5Z"/></g><g id="圖層_8" data-name="圖層 8"><path class="cls-1" d="M265.89,55.37c-10.69,9.94-24.48,16-38.56,19.85-8.53,2.33-17.23,3.92-25.93,5.5C193.06,82.24,179.74,87,169.19,86l.74-.16c.51-.79,1-1.57,1.56-2.34l5.46-.79v-.78l3.12-.78v-.78l4.68-.78.78-1.56,10.15-2.34c.25-.52.52-1,.77-1.56h2.35l.78-1.56,7-1.56v-.78h2.34v-.78h1.56v-.78h2.34v-.78h1.56v-.78h3.13c.25-.52.51-1,.77-1.56h3.13q.38-.78.78-1.56h1.56v-.78h2.34l.78-1.56h2.34v-.78h2.34c1.06-.33-.32-.91.78-.79a1.23,1.23,0,0,0,1.56.79V60h2.34v-.77l7.81-1.57q.38-.78.78-1.56h2.33v-.78c.9-.89.32,0,.79-1.56l3.12-.78.78-1.56,3.9-.78V49.9c1.41-1.11,1.86-1.76,3.9-2.34V46l3.9.78V46c4.56-2.45,11.84-11.62,12.49-17.95l-3.12-2.34v-.78h-1.56c-.52-.78-1.05-1.56-1.56-2.34h-1.56q-.79-1.17-1.56-2.34h-1.57l-.78-1.56h-1.56c-1.94-1.13-2.71-2.49-5.46-3.12V14c-3.88-.8-2.75-1.61-4.68-3.91-.52-.26-1-.51-1.56-.78V7h-.78l-.78-2.34c3.07-.14,12.66-1,17.17,0v.78L269,4.64v.78h3.12V6.2h3.12V7L280,8.54v.78h1.56c.26.52.52,1,.78,1.56l.07.07a30.34,30.34,0,0,1,.78,5.67C283.87,31.2,276.58,45.43,265.89,55.37Z"/></g></svg>